<svg width="179" height="61" viewBox="0 0 179 61" fill="none" xmlns="http://www.w3.org/2000/svg">
<rect width="178.003" height="61" rx="8" fill="white"/>
<rect width="178.003" height="61" rx="8" fill="#000929" fill-opacity="0.05"/>
<path d="M39.1148 31.5546C39.0761 27.3647 42.6335 25.3263 42.7961 25.2314C40.7815 22.3675 37.6588 21.9762 36.5615 21.945C33.9388 21.6759 31.3948 23.4751 30.0588 23.4751C28.6961 23.4751 26.6388 21.971 24.4215 22.0152C21.5681 22.0581 18.8988 23.6688 17.4348 26.17C14.4135 31.2699 16.6668 38.7644 19.5615 42.8867C21.0095 44.9056 22.7015 47.1598 24.9161 47.0805C27.0828 46.9934 27.8921 45.7337 30.5068 45.7337C33.0975 45.7337 33.8575 47.0805 36.1161 47.0298C38.4415 46.9934 39.9055 45.0018 41.3028 42.9647C42.9761 40.6507 43.6481 38.3718 43.6748 38.2548C43.6201 38.2366 39.1588 36.5765 39.1148 31.5546Z" fill="#4D5369"/>
<path d="M34.8481 19.2332C36.0135 17.8123 36.8108 15.8792 36.5895 13.9175C34.9028 13.9903 32.7935 15.055 31.5788 16.4447C30.5041 17.6693 29.5441 19.6765 29.7921 21.5641C31.6868 21.7019 33.6321 20.632 34.8481 19.2332Z" fill="#4D5369"/>
<path d="M64.3168 16.1307C64.3168 17.6608 63.8461 18.8126 62.9061 19.5861C62.0355 20.2998 60.7981 20.6573 59.1955 20.6573C58.4008 20.6573 57.7208 20.6235 57.1515 20.5559V12.1956C57.8941 12.0786 58.6941 12.0188 59.5581 12.0188C61.0848 12.0188 62.2355 12.3425 63.0115 12.9899C63.8808 13.7218 64.3168 14.7683 64.3168 16.1307ZM62.8435 16.1684C62.8435 15.1765 62.5741 14.416 62.0355 13.8856C61.4968 13.3565 60.7101 13.0913 59.6741 13.0913C59.2341 13.0913 58.8595 13.1199 58.5488 13.1797V19.5354C58.7208 19.5614 59.0355 19.5731 59.4928 19.5731C60.5621 19.5731 61.3875 19.2832 61.9688 18.7034C62.5501 18.1236 62.8435 17.2786 62.8435 16.1684Z" fill="#4D5369"/>
<path d="M72.1288 17.4671C72.1288 18.4096 71.8528 19.1818 71.3008 19.7876C70.7221 20.4103 69.9555 20.721 68.9981 20.721C68.0755 20.721 67.3408 20.4233 66.7928 19.8253C66.2461 19.2286 65.9728 18.4759 65.9728 17.5685C65.9728 16.6195 66.2541 15.8408 66.8195 15.2363C67.3848 14.6318 68.1448 14.3289 69.1021 14.3289C70.0248 14.3289 70.7661 14.6266 71.3275 15.2233C71.8608 15.8031 72.1288 16.5519 72.1288 17.4671ZM70.6795 17.5113C70.6795 16.9458 70.5541 16.4609 70.3048 16.0566C70.0115 15.5678 69.5941 15.3234 69.0515 15.3234C68.4901 15.3234 68.0635 15.5678 67.7701 16.0566C67.5195 16.4609 67.3955 16.9536 67.3955 17.536C67.3955 18.1015 67.5208 18.5864 67.7701 18.9907C68.0728 19.4795 68.4941 19.7239 69.0381 19.7239C69.5715 19.7239 69.9901 19.4756 70.2915 18.9777C70.5501 18.5656 70.6795 18.0768 70.6795 17.5113Z" fill="#4D5369"/>
<path d="M82.6035 14.4539L80.6368 20.5821H79.3568L78.5421 17.921C78.3355 17.2567 78.1675 16.5963 78.0368 15.9411H78.0115C77.8901 16.6145 77.7221 17.2736 77.5061 17.921L76.6408 20.5821H75.3461L73.4968 14.4539H74.9328L75.6435 17.3672C75.8155 18.0562 75.9568 18.7127 76.0701 19.3341H76.0955C76.1995 18.8219 76.3715 18.1693 76.6141 17.3802L77.5061 14.4552H78.6448L79.4995 17.3178C79.7061 18.0159 79.8741 18.688 80.0035 19.3354H80.0421C80.1368 18.7049 80.2795 18.0328 80.4688 17.3178L81.2315 14.4552H82.6035V14.4539Z" fill="#4D5369"/>
<path d="M89.8475 20.5819H88.4501V17.0719C88.4501 15.9903 88.0288 15.4495 87.1835 15.4495C86.7688 15.4495 86.4341 15.5977 86.1741 15.8954C85.9168 16.1931 85.7861 16.5441 85.7861 16.9458V20.5806H84.3888V16.2048C84.3888 15.6666 84.3715 15.0829 84.3381 14.4511H85.5661L85.6315 15.4092H85.6701C85.8328 15.1115 86.0755 14.8658 86.3941 14.6695C86.7728 14.4407 87.1968 14.325 87.6608 14.325C88.2475 14.325 88.7355 14.5096 89.1235 14.8801C89.6061 15.3338 89.8475 16.0111 89.8475 16.9107V20.5819Z" fill="#4D5369"/>
<path d="M93.7008 20.5819H92.3048V11.6418H93.7008V20.5819Z" fill="#4D5369"/>
<path d="M101.927 17.4671C101.927 18.4096 101.651 19.1818 101.099 19.7876C100.521 20.4103 99.7528 20.721 98.7968 20.721C97.8728 20.721 97.1381 20.4233 96.5915 19.8253C96.0448 19.2286 95.7715 18.4759 95.7715 17.5685C95.7715 16.6195 96.0528 15.8408 96.6181 15.2363C97.1835 14.6318 97.9435 14.3289 98.8995 14.3289C99.8235 14.3289 100.563 14.6266 101.126 15.2233C101.659 15.8031 101.927 16.5519 101.927 17.4671ZM100.477 17.5113C100.477 16.9458 100.351 16.4609 100.102 16.0566C99.8101 15.5678 99.3915 15.3234 98.8501 15.3234C98.2875 15.3234 97.8608 15.5678 97.5688 16.0566C97.3181 16.4609 97.1941 16.9536 97.1941 17.536C97.1941 18.1015 97.3195 18.5864 97.5688 18.9907C97.8715 19.4795 98.2928 19.7239 98.8368 19.7239C99.3701 19.7239 99.7875 19.4756 100.089 18.9777C100.349 18.5656 100.477 18.0768 100.477 17.5113Z" fill="#4D5369"/>
<path d="M108.69 20.5819H107.435L107.331 19.876H107.293C106.863 20.4389 106.251 20.721 105.457 20.721C104.863 20.721 104.383 20.5351 104.022 20.1659C103.694 19.8305 103.53 19.4132 103.53 18.9179C103.53 18.1691 103.85 17.5984 104.494 17.2032C105.137 16.808 106.041 16.6143 107.205 16.6234V16.509C107.205 15.7017 106.77 15.2987 105.899 15.2987C105.279 15.2987 104.733 15.4508 104.261 15.7524L103.977 14.858C104.561 14.5057 105.282 14.3289 106.133 14.3289C107.775 14.3289 108.599 15.1739 108.599 16.8639V19.1207C108.599 19.733 108.63 20.2205 108.69 20.5819ZM107.239 18.4759V17.5308C105.698 17.5048 104.927 17.9169 104.927 18.7658C104.927 19.0856 105.015 19.3248 105.195 19.4847C105.375 19.6446 105.605 19.7239 105.878 19.7239C106.185 19.7239 106.471 19.629 106.733 19.4405C106.995 19.2507 107.157 19.0102 107.217 18.7151C107.231 18.6488 107.239 18.5682 107.239 18.4759Z" fill="#4D5369"/>
<path d="M116.63 20.5819H115.39L115.325 19.5978H115.286C114.89 20.3466 114.215 20.721 113.267 20.721C112.51 20.721 111.879 20.4311 111.379 19.8513C110.879 19.2715 110.63 18.5188 110.63 17.5945C110.63 16.6026 110.901 15.7992 111.445 15.1856C111.971 14.6136 112.617 14.3276 113.385 14.3276C114.229 14.3276 114.819 14.6045 115.155 15.1596H115.182V11.6418H116.581V18.9309C116.581 19.5276 116.597 20.0775 116.63 20.5819ZM115.182 17.9975V16.9757C115.182 16.7989 115.169 16.6559 115.143 16.5467C115.065 16.2191 114.895 15.9435 114.638 15.7212C114.378 15.4989 114.065 15.3871 113.703 15.3871C113.182 15.3871 112.774 15.5886 112.474 15.9929C112.177 16.3972 112.026 16.9133 112.026 17.5438C112.026 18.1496 112.169 18.641 112.455 19.0193C112.758 19.4223 113.166 19.6238 113.677 19.6238C114.135 19.6238 114.502 19.4561 114.781 19.1194C115.05 18.8087 115.182 18.4343 115.182 17.9975Z" fill="#4D5369"/>
<path d="M128.581 17.4671C128.581 18.4096 128.305 19.1818 127.753 19.7876C127.174 20.4103 126.409 20.721 125.45 20.721C124.529 20.721 123.794 20.4233 123.245 19.8253C122.698 19.2286 122.425 18.4759 122.425 17.5685C122.425 16.6195 122.706 15.8408 123.271 15.2363C123.837 14.6318 124.597 14.3289 125.555 14.3289C126.477 14.3289 127.219 14.6266 127.779 15.2233C128.313 15.8031 128.581 16.5519 128.581 17.4671ZM127.133 17.5113C127.133 16.9458 127.007 16.4609 126.758 16.0566C126.463 15.5678 126.047 15.3234 125.503 15.3234C124.943 15.3234 124.517 15.5678 124.222 16.0566C123.971 16.4609 123.847 16.9536 123.847 17.536C123.847 18.1015 123.973 18.5864 124.222 18.9907C124.525 19.4795 124.946 19.7239 125.49 19.7239C126.023 19.7239 126.443 19.4756 126.745 18.9777C127.002 18.5656 127.133 18.0768 127.133 17.5113Z" fill="#4D5369"/>
<path d="M136.094 20.5819H134.698V17.0719C134.698 15.9903 134.277 15.4495 133.43 15.4495C133.015 15.4495 132.681 15.5977 132.422 15.8954C132.163 16.1931 132.034 16.5441 132.034 16.9458V20.5806H130.635V16.2048C130.635 15.6666 130.619 15.0829 130.586 14.4511H131.813L131.878 15.4092H131.917C132.081 15.1115 132.323 14.8658 132.641 14.6695C133.021 14.4407 133.443 14.325 133.909 14.325C134.494 14.325 134.982 14.5096 135.37 14.8801C135.854 15.3338 136.094 16.0111 136.094 16.9107V20.5819Z" fill="#4D5369"/>
<path d="M145.498 15.4742H143.959V18.4512C143.959 19.2078 144.233 19.5861 144.774 19.5861C145.025 19.5861 145.233 19.5653 145.397 19.5224L145.433 20.5559C145.157 20.6573 144.794 20.708 144.347 20.708C143.795 20.708 143.366 20.5442 143.055 20.2166C142.743 19.889 142.589 19.3378 142.589 18.5643V15.4742H141.67V14.4537H142.589V13.3305L143.958 12.9275V14.4524H145.497V15.4742H145.498Z" fill="#4D5369"/>
<path d="M152.895 20.5819H151.497V17.0979C151.497 15.9994 151.075 15.4495 150.231 15.4495C149.583 15.4495 149.141 15.768 148.898 16.405C148.857 16.5389 148.833 16.7027 148.833 16.8951V20.5806H147.437V11.6418H148.833V15.3351H148.859C149.299 14.663 149.93 14.3276 150.747 14.3276C151.326 14.3276 151.805 14.5122 152.185 14.8827C152.658 15.3442 152.895 16.0306 152.895 16.938V20.5819Z" fill="#4D5369"/>
<path d="M160.526 17.2278C160.526 17.4722 160.507 17.6776 160.474 17.8453H156.283C156.302 18.4511 156.502 18.9126 156.89 19.2324C157.245 19.5184 157.702 19.6614 158.262 19.6614C158.882 19.6614 159.447 19.5652 159.957 19.3715L160.175 20.3179C159.579 20.5701 158.878 20.6962 158.066 20.6962C157.093 20.6962 156.326 20.4167 155.771 19.8577C155.214 19.2987 154.938 18.5486 154.938 17.6074C154.938 16.6831 155.195 15.9135 155.714 15.2999C156.255 14.6447 156.987 14.3171 157.911 14.3171C158.815 14.3171 159.502 14.6447 159.966 15.2999C160.341 15.8199 160.526 16.4634 160.526 17.2278ZM159.193 16.8755C159.203 16.4712 159.111 16.1228 158.922 15.829C158.679 15.4507 158.31 15.2609 157.81 15.2609C157.354 15.2609 156.982 15.4455 156.698 15.816C156.466 16.1111 156.329 16.4634 156.283 16.8755H159.193Z" fill="#4D5369"/>
<path d="M70.6548 44.2748H67.6268L65.9681 39.1931H60.2028L58.6228 44.2748H55.6748L61.3868 26.9744H64.9148L70.6548 44.2748ZM65.4681 37.0611L63.9681 32.5436C63.8095 32.0821 63.5121 30.9953 63.0735 29.2845H63.0201C62.8455 30.0203 62.5641 31.1071 62.1775 32.5436L60.7041 37.0611H65.4681Z" fill="#4D5369"/>
<path d="M85.3441 37.884C85.3441 40.0056 84.7561 41.6826 83.5801 42.9137C82.5268 44.0096 81.2188 44.5569 79.6575 44.5569C77.9721 44.5569 76.7615 43.9667 76.0241 42.7863H75.9708V49.3578H73.1281V35.9067C73.1281 34.5729 73.0921 33.204 73.0228 31.8H75.5228L75.6815 33.7773H75.7348C76.6828 32.2875 78.1215 31.5439 80.0521 31.5439C81.5615 31.5439 82.8215 32.125 83.8295 33.2885C84.8401 34.4533 85.3441 35.9847 85.3441 37.884ZM82.4481 37.9854C82.4481 36.7712 82.1681 35.7702 81.6055 34.9824C80.9908 34.1608 80.1655 33.75 79.1308 33.75C78.4295 33.75 77.7921 33.9788 77.2228 34.4299C76.6521 34.8849 76.2788 35.479 76.1041 36.2148C76.0161 36.558 75.9721 36.8388 75.9721 37.0598V39.1398C75.9721 40.0472 76.2575 40.8129 76.8281 41.4382C77.3988 42.0635 78.1401 42.3755 79.0521 42.3755C80.1228 42.3755 80.9561 41.9725 81.5521 41.1691C82.1495 40.3644 82.4481 39.3036 82.4481 37.9854Z" fill="#4D5369"/>
<path d="M100.06 37.884C100.06 40.0056 99.4721 41.6826 98.2948 42.9137C97.2428 44.0096 95.9348 44.5569 94.3735 44.5569C92.6881 44.5569 91.4775 43.9667 90.7415 42.7863H90.6881V49.3578H87.8455V35.9067C87.8455 34.5729 87.8095 33.204 87.7401 31.8H90.2401L90.3988 33.7773H90.4521C91.3988 32.2875 92.8375 31.5439 94.7695 31.5439C96.2775 31.5439 97.5375 32.125 98.5481 33.2885C99.5548 34.4533 100.06 35.9847 100.06 37.884ZM97.1641 37.9854C97.1641 36.7712 96.8828 35.7702 96.3201 34.9824C95.7055 34.1608 94.8828 33.75 93.8468 33.75C93.1441 33.75 92.5081 33.9788 91.9375 34.4299C91.3668 34.8849 90.9948 35.479 90.8201 36.2148C90.7335 36.558 90.6881 36.8388 90.6881 37.0598V39.1398C90.6881 40.0472 90.9735 40.8129 91.5415 41.4382C92.1121 42.0622 92.8535 42.3755 93.7681 42.3755C94.8388 42.3755 95.6721 41.9725 96.2681 41.1691C96.8655 40.3644 97.1641 39.3036 97.1641 37.9854Z" fill="#4D5369"/>
<path d="M116.513 39.4232C116.513 40.8948 115.989 42.0921 114.937 43.0164C113.781 44.0266 112.172 44.531 110.104 44.531C108.195 44.531 106.664 44.1721 105.505 43.4533L106.164 41.1431C107.412 41.8789 108.781 42.2481 110.273 42.2481C111.344 42.2481 112.177 42.0115 112.776 41.5409C113.372 41.0703 113.669 40.4386 113.669 39.6508C113.669 38.9488 113.424 38.3573 112.932 37.8776C112.443 37.3979 111.625 36.952 110.484 36.5399C107.377 35.4102 105.825 33.7552 105.825 31.579C105.825 30.1568 106.369 28.9907 107.459 28.0833C108.544 27.1746 109.992 26.7209 111.803 26.7209C113.417 26.7209 114.759 26.9952 115.829 27.5425L115.119 29.8019C114.119 29.2715 112.988 29.0063 111.723 29.0063C110.723 29.0063 109.941 29.2468 109.381 29.7252C108.908 30.1529 108.671 30.6742 108.671 31.2917C108.671 31.9755 108.941 32.541 109.485 32.9856C109.959 33.3964 110.819 33.841 112.067 34.3207C113.593 34.92 114.715 35.6207 115.436 36.4241C116.155 37.2249 116.513 38.2272 116.513 39.4232Z" fill="#4D5369"/>
<path d="M125.912 33.8799H122.779V39.9367C122.779 41.4772 123.331 42.2468 124.437 42.2468C124.945 42.2468 125.367 42.2038 125.7 42.118L125.779 44.2228C125.219 44.4269 124.481 44.5296 123.568 44.5296C122.445 44.5296 121.568 44.1955 120.935 43.5286C120.304 42.8604 119.987 41.7398 119.987 40.1655V33.8774H118.12V31.7974H119.987V29.5133L122.779 28.6917V31.7974H125.912V33.8799Z" fill="#4D5369"/>
<path d="M140.049 37.9347C140.049 39.8522 139.487 41.4265 138.364 42.6576C137.187 43.9251 135.624 44.5569 133.676 44.5569C131.799 44.5569 130.304 43.9498 129.189 42.7356C128.075 41.5214 127.517 39.9887 127.517 38.1414C127.517 36.2083 128.091 34.6249 129.241 33.3938C130.389 32.1614 131.939 31.5452 133.887 31.5452C135.764 31.5452 137.275 32.1523 138.415 33.3678C139.505 34.5469 140.049 36.0692 140.049 37.9347ZM137.1 38.0244C137.1 36.8739 136.848 35.8872 136.337 35.0643C135.741 34.0685 134.889 33.5719 133.785 33.5719C132.643 33.5719 131.775 34.0698 131.179 35.0643C130.668 35.8885 130.416 36.8908 130.416 38.0764C130.416 39.2269 130.668 40.2136 131.179 41.0352C131.793 42.031 132.652 42.5276 133.76 42.5276C134.845 42.5276 135.697 42.0206 136.312 41.0092C136.836 40.1707 137.1 39.1736 137.1 38.0244Z" fill="#4D5369"/>
<path d="M149.289 34.2375C149.008 34.1868 148.708 34.1608 148.393 34.1608C147.393 34.1608 146.62 34.5287 146.076 35.2658C145.603 35.9158 145.365 36.7374 145.365 37.7293V44.2748H142.524L142.551 35.7286C142.551 34.2908 142.515 32.9817 142.444 31.8013H144.92L145.024 34.1881H145.103C145.403 33.3678 145.876 32.7074 146.524 32.2121C147.157 31.7662 147.841 31.5439 148.579 31.5439C148.841 31.5439 149.079 31.5621 149.289 31.5946V34.2375Z" fill="#4D5369"/>
<path d="M162.003 37.4472C162.003 37.9438 161.969 38.3624 161.899 38.7043H153.371C153.404 39.9367 153.816 40.8792 154.608 41.5292C155.327 42.1103 156.256 42.4015 157.397 42.4015C158.66 42.4015 159.812 42.2052 160.848 41.8113L161.293 43.7353C160.083 44.2501 158.653 44.5062 157.004 44.5062C155.02 44.5062 153.463 43.9368 152.329 42.7993C151.199 41.6618 150.632 40.1343 150.632 38.2181C150.632 36.337 151.159 34.7705 152.213 33.5212C153.317 32.1874 154.809 31.5205 156.687 31.5205C158.531 31.5205 159.927 32.1874 160.875 33.5212C161.625 34.5807 162.003 35.8911 162.003 37.4472ZM159.292 36.7283C159.311 35.9067 159.125 35.1969 158.74 34.5976C158.248 33.8267 157.492 33.4419 156.475 33.4419C155.545 33.4419 154.789 33.8176 154.212 34.5716C153.739 35.1709 153.457 35.8898 153.371 36.727H159.292V36.7283Z" fill="#4D5369"/>
</svg>
