<svg width="127" height="20" viewBox="0 0 127 20" fill="none" xmlns="http://www.w3.org/2000/svg">
<path fill-rule="evenodd" clip-rule="evenodd" d="M41.229 7.7499V3.85785H32.1598V0H26.4354V3.85785H23.573V7.7499H26.4354V14.5179C26.4354 16.9093 27.282 18.4888 28.9759 19.2557C30.0692 19.7513 31.9346 19.9997 34.5717 19.9997C37.3165 19.9997 39.1384 19.4699 40.039 18.4099C40.8325 17.4844 41.229 15.612 41.229 12.7922H36.8876V13.5026C36.8876 14.3151 36.6948 14.8788 36.3085 15.195C35.9228 15.4881 35.322 15.6348 34.5076 15.6348C33.5855 15.6348 32.9638 15.4092 32.6422 14.9577C32.3206 14.5065 32.1598 13.7846 32.1598 12.7922V7.7499H41.229ZM20.3891 14.4839H14.8577C14.8151 15.0704 14.7291 15.4542 14.6006 15.6351C14.2793 16.0863 13.3569 16.3113 11.8349 16.3113L8.68284 16.2438C7.54684 16.2216 6.75332 15.9621 6.30315 15.4656C5.87447 14.9465 5.65998 14.078 5.65998 12.8599H20.3891C20.325 10.5136 20.2713 9.1146 20.2286 8.66338C20.0571 6.52039 19.0923 5.06533 17.3343 4.2982C16.1551 3.77889 14.3434 3.51968 11.899 3.51968C9.81943 3.51968 8.06114 3.55328 6.62474 3.62108C4.15915 3.73418 2.43338 4.38821 1.44714 5.58435C0.48238 6.75681 0 8.66338 0 11.3032C0 14.1461 0.428384 16.1763 1.28605 17.3946C2.27258 18.7933 4.06249 19.594 6.65696 19.7971C8.43643 19.9324 10.2266 19.9999 12.0276 19.9999C14.665 19.9999 16.5516 19.7401 17.6879 19.2223C19.4461 18.4321 20.3465 16.8531 20.3891 14.4839ZM13.9255 7.44533C14.5683 7.82933 14.8902 8.61838 14.8902 9.81452H5.65998C5.63821 9.72392 5.62747 9.57722 5.62747 9.3744C5.62747 8.33637 6.04571 7.65954 6.88189 7.34363C7.39679 7.14052 8.23297 7.03941 9.39045 7.03941H11.4811C12.6603 7.03941 13.475 7.17472 13.9255 7.44533ZM65.381 8.15619H59.5277C59.4206 7.43436 58.4344 7.07344 56.5687 7.07344H54.1568C53.1497 7.07344 52.4847 7.10734 52.1628 7.17514C51.3269 7.35546 50.909 7.78388 50.909 8.461C50.909 9.18283 51.5307 9.54375 52.7741 9.54375C55.6475 9.54375 57.6945 9.55514 58.917 9.57794C61.3605 9.62265 62.9906 9.81494 63.8053 10.1531C65.3491 10.8074 66.1208 12.1721 66.1208 14.2479C66.1208 15.5785 65.9708 16.5829 65.6703 17.2595C65.2846 18.0944 64.5552 18.7259 63.4837 19.1546C62.0902 19.7184 59.5277 20.0004 55.7975 20.0004H53.4492C50.7912 20.0004 48.947 19.7862 47.9175 19.3583C46.1386 18.6134 45.2269 17.0905 45.1846 14.7892H51.0056C51.0268 15.511 51.3911 15.9736 52.099 16.1767C52.5706 16.3117 53.3424 16.3801 54.4142 16.3801H55.7328C55.9261 16.3801 56.1829 16.3909 56.5045 16.4137H57.0513C58.1235 16.4137 58.8419 16.3687 59.2061 16.2784C60.0855 16.0528 60.5247 15.568 60.5247 14.8231C60.5247 14.0337 59.871 13.6386 58.5632 13.6386H54.3823C52.1739 13.6386 50.5874 13.5936 49.6226 13.5033C46.7278 13.2327 45.2806 11.6309 45.2806 8.698C45.2806 6.84754 45.9026 5.53919 47.146 4.77235C48.0255 4.23083 49.4398 3.86991 51.3911 3.6896C52.3991 3.59901 54.2105 3.55371 56.8264 3.55371C61.0927 3.55371 63.6549 4.10692 64.5129 5.21246C65.0057 5.8665 65.2957 6.84754 65.381 8.15619ZM84.002 3.75716H73.5501V0.169922H71.299V3.75716H67.6333V5.78764H71.299V14.5525C71.299 16.8086 71.9416 18.32 73.2285 19.0869C74.1289 19.6284 75.7475 19.8984 78.0849 19.8984C80.9147 19.8984 82.716 19.3575 83.488 18.275C84.0879 17.4629 84.3883 15.5899 84.3883 12.6573H82.2977C82.2977 12.8604 82.3084 13.1535 82.3296 13.5364V14.4505C82.3296 15.872 81.8905 16.8194 81.0117 17.2934C80.4111 17.6315 79.3491 17.801 77.8274 17.801C76.1339 17.801 74.9973 17.5187 74.4185 16.955C73.8395 16.3685 73.5501 15.1954 73.5501 13.4356V5.78764H84.002V3.75716ZM105.871 19.6615H103.62V16.5827C103.127 17.9361 102.173 18.8721 100.757 19.3909C99.7926 19.729 98.4415 19.8982 96.705 19.8982C93.8325 19.8982 91.7741 19.594 90.5307 18.9852C88.6648 18.06 87.7325 16.2665 87.7325 13.6042V3.75692H89.9833V12.4537C89.9833 14.777 90.509 16.2893 91.5596 16.9884C92.3532 17.5299 93.9393 17.8008 96.3193 17.8008C98.7846 17.8008 100.5 17.5521 101.465 17.0559C102.901 16.2893 103.62 14.7551 103.62 12.4537V3.75692H105.871V19.6615ZM113.236 3.75654H110.984V19.6611H113.236V10.7615C113.236 8.64103 113.761 7.21928 114.811 6.49745C115.648 5.91093 117.148 5.61752 119.314 5.61752H120.086C121.994 5.61752 123.248 5.97844 123.849 6.70027C124.449 7.4221 124.749 8.77634 124.749 10.7615H126.968C126.968 10.6934 126.979 10.5695 127 10.3892V10.0172C127 7.19649 126.335 5.34691 125.006 4.46697C124.042 3.83486 122.123 3.51953 119.249 3.51953C117.706 3.51953 116.516 3.67734 115.68 3.99296C114.436 4.46697 113.622 5.32411 113.236 6.56496V3.75654Z" fill="#000929"/>
</svg>
