<svg width="187" height="61" viewBox="0 0 187 61" fill="none" xmlns="http://www.w3.org/2000/svg">
<rect width="186.632" height="61" rx="8" fill="white"/>
<rect width="186.632" height="61" rx="8" fill="#000929" fill-opacity="0.05"/>
<path d="M16.6175 14.2978C16.2264 14.6975 16 15.3199 16 16.1259V44.8754C16 45.6814 16.2264 46.3038 16.6175 46.7035L16.714 46.7913L33.2146 30.6875V30.3073L16.714 14.2035L16.6175 14.2978Z" fill="url(#paint0_linear_5422_8407)"/>
<path d="M38.7085 36.0581L33.2144 30.6875V30.3072L38.7151 24.9366L38.8383 25.0065L45.3526 28.6254C47.2118 29.6524 47.2118 31.3424 45.3526 32.3759L38.8383 35.9882L38.7085 36.0581Z" fill="url(#paint1_linear_5422_8407)"/>
<path d="M38.8383 35.9883L33.2143 30.4974L16.6172 46.7035C17.2347 47.3373 18.2416 47.4137 19.3867 46.7799L38.8383 35.9883Z" fill="url(#paint2_linear_5422_8407)"/>
<path d="M38.8383 25.0064L19.3867 14.2148C18.2416 13.5876 17.2347 13.6639 16.6172 14.2977L33.2143 30.4973L38.8383 25.0064Z" fill="url(#paint3_linear_5422_8407)"/>
<path d="M65.8225 17.2466C65.8225 18.3321 65.4897 19.2015 64.8339 19.8499C64.0799 20.6185 63.0979 21.0052 61.8946 21.0052C60.7445 21.0052 59.7625 20.612 58.957 19.8369C58.1498 19.0504 57.747 18.0851 57.747 16.9297C57.747 15.7744 58.1498 14.8091 58.957 14.0291C59.7625 13.2475 60.7445 12.8542 61.8946 12.8542C62.4672 12.8542 63.0131 12.9696 63.534 13.1841C64.0533 13.4002 64.476 13.6927 64.7823 14.0535L64.0866 14.7392C63.5523 14.1234 62.825 13.8195 61.8946 13.8195C61.0558 13.8195 60.3284 14.1055 59.7109 14.6824C59.1001 15.2609 58.7939 16.01 58.7939 16.9297C58.7939 17.8495 59.1001 18.6051 59.7109 19.1836C60.3284 19.754 61.0558 20.0465 61.8946 20.0465C62.785 20.0465 63.534 19.754 64.1249 19.1771C64.5143 18.7952 64.7357 18.2687 64.7939 17.596H61.8946V16.6567H65.7626C65.8092 16.8599 65.8225 17.0565 65.8225 17.2466Z" fill="#4D5369" stroke="white" stroke-width="0.16" stroke-miterlimit="10"/>
<path d="M71.9587 13.9901H68.3254V16.4601H71.6009V17.3993H68.3254V19.8693H71.9587V20.8265H67.2968V13.033H71.9587V13.9901Z" fill="#4D5369" stroke="white" stroke-width="0.16" stroke-miterlimit="10"/>
<path d="M76.2898 20.8265H75.2612V13.9901H73.0326V13.033H78.5201V13.9901H76.2898V20.8265Z" fill="#4D5369" stroke="white" stroke-width="0.16" stroke-miterlimit="10"/>
<path d="M82.4911 20.8265V13.033H83.518V20.8265H82.4911Z" fill="#4D5369" stroke="white" stroke-width="0.16" stroke-miterlimit="10"/>
<path d="M88.0701 20.8265H87.0498V13.9901H84.8129V13.033H90.307V13.9901H88.0701V20.8265Z" fill="#4D5369" stroke="white" stroke-width="0.16" stroke-miterlimit="10"/>
<path d="M100.696 19.8239C99.9086 20.612 98.9333 21.0052 97.7699 21.0052C96.5998 21.0052 95.6245 20.612 94.8373 19.8239C94.0517 19.0374 93.6606 18.0721 93.6606 16.9297C93.6606 15.7874 94.0517 14.8221 94.8373 14.0356C95.6245 13.2475 96.5998 12.8542 97.7699 12.8542C98.9266 12.8542 99.902 13.2475 100.689 14.0421C101.481 14.8351 101.873 15.7939 101.873 16.9297C101.873 18.0721 101.481 19.0374 100.696 19.8239ZM95.5979 19.1706C96.1904 19.754 96.9111 20.0465 97.7699 20.0465C98.6221 20.0465 99.3494 19.754 99.9353 19.1706C100.526 18.5872 100.826 17.8381 100.826 16.9297C100.826 16.0214 100.526 15.2722 99.9353 14.6889C99.3494 14.1055 98.6221 13.813 97.7699 13.813C96.9111 13.813 96.1904 14.1055 95.5979 14.6889C95.007 15.2722 94.7074 16.0214 94.7074 16.9297C94.7074 17.8381 95.007 18.5872 95.5979 19.1706Z" fill="#4D5369" stroke="white" stroke-width="0.16" stroke-miterlimit="10"/>
<path d="M103.316 20.8265V13.033H104.564L108.445 19.0942H108.49L108.445 17.596V13.033H109.472V20.8265H108.4L104.336 14.4662H104.291L104.336 15.971V20.8265H103.316Z" fill="#4D5369" stroke="white" stroke-width="0.16" stroke-miterlimit="10"/>
<path d="M93.824 32.1233C90.6966 32.1233 88.1418 34.447 88.1418 37.6531C88.1418 40.8333 90.6966 43.1814 93.824 43.1814C96.958 43.1814 99.5128 40.8333 99.5128 37.6531C99.5128 34.447 96.958 32.1233 93.824 32.1233ZM93.824 41.0039C92.108 41.0039 90.6317 39.621 90.6317 37.6531C90.6317 35.6593 92.108 34.3008 93.824 34.3008C95.5399 34.3008 97.0229 35.6593 97.0229 37.6531C97.0229 39.621 95.5399 41.0039 93.824 41.0039ZM81.426 32.1233C78.292 32.1233 75.7439 34.447 75.7439 37.6531C75.7439 40.8333 78.292 43.1814 81.426 43.1814C84.5584 43.1814 87.1082 40.8333 87.1082 37.6531C87.1082 34.447 84.5584 32.1233 81.426 32.1233ZM81.426 41.0039C79.7084 41.0039 78.2271 39.621 78.2271 37.6531C78.2271 35.6593 79.7084 34.3008 81.426 34.3008C83.142 34.3008 84.6183 35.6593 84.6183 37.6531C84.6183 39.621 83.142 41.0039 81.426 41.0039ZM66.673 33.8181V36.1679H72.4201C72.252 37.4809 71.8026 38.4461 71.1136 39.1189C70.2747 39.9314 68.9682 40.8333 66.673 40.8333C63.1362 40.8333 60.3667 38.0464 60.3667 34.5933C60.3667 31.1401 63.1362 28.3533 66.673 28.3533C68.5854 28.3533 69.9768 29.0829 71.0037 30.0286L72.6997 28.3728C71.2634 27.0338 69.3527 26.0051 66.673 26.0051C61.823 26.0051 57.747 29.858 57.747 34.5933C57.747 39.3285 61.823 43.1814 66.673 43.1814C69.2944 43.1814 71.2634 42.3429 72.8112 40.7699C74.3974 39.2213 74.8917 37.0438 74.8917 35.2855C74.8917 34.7395 74.8451 34.2374 74.7619 33.8181H66.673ZM127 35.6398C126.532 34.4031 125.089 32.1233 122.15 32.1233C119.237 32.1233 116.812 34.3641 116.812 37.6531C116.812 40.7504 119.212 43.1814 122.43 43.1814C125.031 43.1814 126.532 41.6328 127.15 40.7309L125.219 39.4748C124.575 40.3945 123.698 41.0039 122.43 41.0039C121.17 41.0039 120.266 40.44 119.687 39.3285L127.261 36.2686L127 35.6398ZM119.277 37.4809C119.212 35.3489 120.973 34.2569 122.235 34.2569C123.224 34.2569 124.062 34.7395 124.342 35.4301L119.277 37.4809ZM113.121 42.845H115.611V26.595H113.121V42.845ZM109.043 33.355H108.96C108.401 32.7083 107.334 32.1233 105.982 32.1233C103.146 32.1233 100.553 34.5543 100.553 37.671C100.553 40.7699 103.146 43.1814 105.982 43.1814C107.334 43.1814 108.401 42.5915 108.96 41.9253H109.043V42.7183C109.043 44.8324 107.886 45.9683 106.021 45.9683C104.499 45.9683 103.556 44.8958 103.166 43.9939L101.001 44.8763C101.625 46.342 103.278 48.1458 106.021 48.1458C108.94 48.1458 111.403 46.4688 111.403 42.3884V32.4596H109.043V33.355ZM106.195 41.0039C104.479 41.0039 103.043 39.6015 103.043 37.671C103.043 35.7226 104.479 34.3008 106.195 34.3008C107.886 34.3008 109.219 35.7226 109.219 37.671C109.219 39.6015 107.886 41.0039 106.195 41.0039ZM138.657 26.595H132.702V42.845H135.185V36.6879H138.657C141.415 36.6879 144.12 34.7395 144.12 31.6406C144.12 28.5434 141.408 26.595 138.657 26.595ZM138.722 34.4275H135.185V28.8554H138.722C140.576 28.8554 141.635 30.3585 141.635 31.6406C141.635 32.8984 140.576 34.4275 138.722 34.4275ZM154.073 32.0924C152.279 32.0924 150.413 32.8659 149.645 34.5803L151.849 35.4821C152.323 34.5803 153.196 34.2878 154.118 34.2878C155.406 34.2878 156.712 35.0434 156.732 36.3775V36.5481C156.283 36.2946 155.321 35.9193 154.138 35.9193C151.764 35.9193 149.346 37.1949 149.346 39.5755C149.346 41.753 151.29 43.1554 153.475 43.1554C155.146 43.1554 156.068 42.4193 156.647 41.5629H156.732V42.819H159.131V36.5855C159.131 33.7044 156.927 32.0924 154.073 32.0924ZM153.773 40.9974C152.961 40.9974 151.829 40.6041 151.829 39.621C151.829 38.3633 153.24 37.8806 154.462 37.8806C155.556 37.8806 156.068 38.1163 156.732 38.4266C156.538 39.9314 155.211 40.9974 153.773 40.9974ZM167.869 32.4483L165.014 39.4926H164.929L161.978 32.4483H159.3L163.734 42.2925L161.205 47.7704H163.799L170.632 32.4483H167.869ZM145.485 42.845H147.974V26.595H145.485V42.845Z" fill="#4D5369"/>
<defs>
<linearGradient id="paint0_linear_5422_8407" x1="31.7496" y1="45.1748" x2="9.93871" y2="22.8354" gradientUnits="userSpaceOnUse">
<stop stop-color="#00A0FF"/>
<stop offset="0.0066" stop-color="#00A1FF"/>
<stop offset="0.2601" stop-color="#00BEFF"/>
<stop offset="0.5122" stop-color="#00D2FF"/>
<stop offset="0.7604" stop-color="#00DFFF"/>
<stop offset="1" stop-color="#00E3FF"/>
</linearGradient>
<linearGradient id="paint1_linear_5422_8407" x1="47.7735" y1="30.4955" x2="15.5553" y2="30.4955" gradientUnits="userSpaceOnUse">
<stop stop-color="#FFE000"/>
<stop offset="0.4087" stop-color="#FFBD00"/>
<stop offset="0.7754" stop-color="#FFA500"/>
<stop offset="1" stop-color="#FF9C00"/>
</linearGradient>
<linearGradient id="paint2_linear_5422_8407" x1="35.7801" y1="27.5125" x2="6.20283" y2="-2.78153" gradientUnits="userSpaceOnUse">
<stop stop-color="#FF3A44"/>
<stop offset="1" stop-color="#C31162"/>
</linearGradient>
<linearGradient id="paint3_linear_5422_8407" x1="12.4393" y1="56.2683" x2="25.6469" y2="42.7408" gradientUnits="userSpaceOnUse">
<stop stop-color="#32A071"/>
<stop offset="0.0685" stop-color="#2DA771"/>
<stop offset="0.4762" stop-color="#15CF74"/>
<stop offset="0.8009" stop-color="#06E775"/>
<stop offset="1" stop-color="#00F076"/>
</linearGradient>
</defs>
</svg>
