<svg xmlns="http://www.w3.org/2000/svg" width="35" height="29" viewBox="0 0 35 29">
    <g fill="none" fill-rule="evenodd">
        <g fill="#FFF">
            <g>
                <g>
                    <g>
                        <path d="M48.505 44.78H58c-.073 4.06-1.619 6.764-4.637 8.117-1.95.887-5.189 1.332-9.716 1.332-3.092 0-6.165-.115-9.22-.347-4.453-.348-7.526-1.72-9.22-4.115C23.736 47.68 23 44.202 23 39.333c0-4.522.828-7.788 2.484-9.796 1.693-2.05 4.656-3.17 8.888-3.363 2.466-.116 5.484-.174 9.054-.174 4.196 0 7.306.444 9.33 1.334 3.018 1.314 4.674 3.806 4.968 7.477.074.773.166 3.169.276 7.188H32.716c0 2.087.368 3.574 1.104 4.463.773.85 2.135 1.295 4.085 1.333l5.41.116c2.613 0 4.197-.385 4.748-1.158.221-.31.369-.967.442-1.972m.056-7.998c0-2.05-.553-3.4-1.657-4.059-.773-.463-2.171-.695-4.196-.695H39.12c-1.987 0-3.423.173-4.307.521-1.435.541-2.153 1.7-2.153 3.479 0 .347.019.598.056.754H48.56" transform="translate(-247 -7232) translate(165 6820) translate(0 54) translate(59 332)"/>
                    </g>
                </g>
            </g>
        </g>
    </g>
</svg>
